<?xml version="1.0" encoding="UTF-8"?>
<svg xmlns="http://www.w3.org/2000/svg" width="622.93" height="622.93" viewBox="0 0 622.93 622.93">
	<g transform="matrix(1, 0, 0, 1, 311.4647216796875, 579.03564453125)">
		<rect x="-311.46" y="-579.04" width="622.93" height="622.93" style="fill:#137FEC;" />
		<g transform="matrix(1, 0, 0, 1, 0, -267.5709228515625)">
			<path transform="matrix(33.33333206176758, 0, 0, 33.33333206176758, -400, -489.5287170410156)" d="M7.91,15.45 L7.91,18.22 C7.91,19.09 8.62,19.8 9.49,19.8 L14.51,19.8 C15.38,19.8 16.09,19.09 16.09,18.22 L16.09,15.45 C16.09,15.31 15.98,15.2 15.84,15.2 L8.16,15.2 C8.02,15.2 7.91,15.31 7.91,15.45 L7.91,15.45 ZM10.4,17.95 C10.29,18.07 10.12,18.14 9.95,18.14 C9.91,18.14 9.87,18.13 9.83,18.13 C9.79,18.12 9.75,18.11 9.71,18.09 C9.67,18.07 9.63,18.05 9.6,18.03 C9.56,18.01 9.53,17.98 9.5,17.95 C9.38,17.83 9.31,17.67 9.31,17.5 C9.31,17.33 9.38,17.17 9.5,17.05 C9.53,17.02 9.56,16.99 9.6,16.97 C9.63,16.95 9.67,16.93 9.71,16.91 C9.75,16.89 9.79,16.88 9.83,16.87 C10.04,16.83 10.26,16.9 10.4,17.05 C10.53,17.17 10.59,17.33 10.59,17.5 C10.59,17.67 10.53,17.83 10.4,17.95 L10.4,17.95 ZM14.5,17.95 C14.47,17.98 14.44,18.01 14.4,18.03 C14.37,18.05 14.33,18.07 14.29,18.09 C14.25,18.11 14.21,18.12 14.17,18.13 C14.13,18.13 14.09,18.14 14.05,18.14 C14.01,18.14 13.96,18.13 13.92,18.13 C13.88,18.12 13.84,18.11 13.8,18.09 C13.77,18.07 13.72,18.05 13.69,18.03 C13.66,18.01 13.62,17.98 13.6,17.95 C13.47,17.83 13.41,17.67 13.41,17.5 C13.41,17.33 13.47,17.17 13.6,17.05 C13.62,17.02 13.66,16.99 13.69,16.97 C13.72,16.95 13.77,16.93 13.8,16.91 C13.84,16.89 13.88,16.88 13.92,16.87 C14.01,16.86 14.09,16.86 14.17,16.87 C14.21,16.88 14.25,16.89 14.29,16.91 C14.33,16.93 14.37,16.95 14.4,16.97 C14.44,16.99 14.47,17.02 14.5,17.05 C14.62,17.17 14.69,17.33 14.69,17.5 C14.69,17.67 14.62,17.83 14.5,17.95 L14.5,17.95 Z" style="fill:#FFFFFF;" />
			<path transform="matrix(33.33333206176758, 0, 0, 33.33333206176758, -400, -286.0542297363281)" d="M14.51,3.47 L9.49,3.47 C8.62,3.47 7.91,4.18 7.91,5.05 L7.91,6.28 C7.91,6.42 8.02,6.53 8.16,6.53 L15.84,6.53 C15.98,6.53 16.09,6.42 16.09,6.28 L16.09,5.05 C16.09,4.18 15.38,3.47 14.51,3.47 L14.51,3.47 ZM13.28,5.38 L10.72,5.38 C10.51,5.38 10.34,5.21 10.34,5 C10.34,4.79 10.51,4.62 10.72,4.62 L13.28,4.62 C13.49,4.62 13.66,4.79 13.66,5 C13.66,5.21 13.49,5.38 13.28,5.38 L13.28,5.38 Z" style="fill:#FFFFFF;" />
			<path transform="matrix(33.33333206176758, 0, 0, 33.33333206176758, -400, -375.5829772949219)" d="M15.84,11.27 L8.16,11.27 C8.02,11.27 7.91,11.15 7.91,11.01 L7.91,9.99 C7.91,9.85 8.02,9.73 8.16,9.73 L15.84,9.73 C15.98,9.73 16.09,9.85 16.09,9.99 L16.09,11.01 C16.09,11.15 15.98,11.27 15.84,11.27 L15.84,11.27 Z" style="fill:#FFFFFF;" />
		</g>
	</g>
</svg>